<svg xmlns="http://www.w3.org/2000/svg" width="400" height="400" viewBox="0 0 400 400"><rect fill="#FFF8F0" width="400" height="400"/><ellipse cx="200" cy="200" rx="70" ry="50" fill="#8B4513"/><ellipse cx="200" cy="200" rx="60" ry="40" fill="#A0522D"/><circle cx="185" cy="190" r="6" fill="#5D4037"/><circle cx="215" cy="190" r="6" fill="#5D4037"/><ellipse cx="200" cy="210" rx="8" ry="5" fill="#E8927C"/><path d="M160 150 Q140 100 155 140" fill="none" stroke="#8B4513" stroke-width="8" stroke-linecap="round"/><path d="M145 115 Q130 80 148 108" fill="none" stroke="#8B4513" stroke-width="6" stroke-linecap="round"/><path d="M150 120 Q165 90 155 115" fill="none" stroke="#8B4513" stroke-width="6" stroke-linecap="round"/><path d="M240 150 Q260 100 245 140" fill="none" stroke="#8B4513" stroke-width="8" stroke-linecap="round"/><path d="M255 115 Q270 80 252 108" fill="none" stroke="#8B4513" stroke-width="6" stroke-linecap="round"/><path d="M250 120 Q235 90 245 115" fill="none" stroke="#8B4513" stroke-width="6" stroke-linecap="round"/><circle cx="200" cy="210" r="12" fill="#E8222E"/><text x="200" y="370" text-anchor="middle" fill="#5D4037" font-size="18" font-family="sans-serif">てがたトナカイ</text></svg>
