<svg xmlns="http://www.w3.org/2000/svg" width="400" height="400" viewBox="0 0 400 400"><rect fill="#FFF8F0" width="400" height="400"/><path d="M140 250 L140 150 Q140 100 180 100 L180 100 Q200 100 200 130 Q200 100 220 100 L220 100 Q260 100 260 150 L260 250" fill="#7BAFD4" opacity="0.4"/><line x1="140" y1="250" x2="140" y2="150" stroke="#7BAFD4" stroke-width="3"/><line x1="160" y1="250" x2="165" y2="120" stroke="#7BAFD4" stroke-width="3"/><line x1="180" y1="250" x2="185" y2="110" stroke="#7BAFD4" stroke-width="3"/><line x1="200" y1="250" x2="200" y2="105" stroke="#7BAFD4" stroke-width="3"/><line x1="220" y1="250" x2="215" y2="110" stroke="#7BAFD4" stroke-width="3"/><line x1="240" y1="250" x2="235" y2="120" stroke="#7BAFD4" stroke-width="3"/><line x1="260" y1="250" x2="260" y2="150" stroke="#7BAFD4" stroke-width="3"/><rect x="120" y="250" width="160" height="30" fill="#F5E6D3" rx="5"/><text x="200" y="370" text-anchor="middle" fill="#5D4037" font-size="20" font-family="sans-serif">てがたアート</text></svg>
