<svg xmlns="http://www.w3.org/2000/svg" width="400" height="400" viewBox="0 0 400 400"><rect fill="#E8F4E8" width="400" height="400"/><polygon points="200,60 100,300 300,300" fill="#2E7D32"/><polygon points="200,100 120,280 280,280" fill="#388E3C"/><polygon points="200,140 140,260 260,260" fill="#43A047"/><rect x="185" y="300" width="30" height="50" fill="#8B4513"/><circle cx="170" cy="180" r="8" fill="#E8222E"/><circle cx="230" cy="200" r="8" fill="#FFD700"/><circle cx="190" cy="230" r="8" fill="#7BAFD4"/><circle cx="220" cy="160" r="8" fill="#E8927C"/><circle cx="200" cy="260" r="8" fill="#E8222E"/><polygon points="200,40 205,55 220,55 208,65 212,80 200,72 188,80 192,65 180,55 195,55" fill="#FFD700"/><text x="200" y="380" text-anchor="middle" fill="#5D4037" font-size="18" font-family="sans-serif">クリスマスツリー</text></svg>
