<svg xmlns="http://www.w3.org/2000/svg" width="400" height="400" viewBox="0 0 400 400"><rect fill="#FFF8F0" width="400" height="400"/><path d="M200 80 L180 160 L130 160 L170 210 L155 290 L200 250 L245 290 L230 210 L270 160 L220 160 Z" fill="#E8927C"/><path d="M100 100 L85 150 L55 150 L80 180 L70 220 L100 200 L130 220 L120 180 L145 150 L115 150 Z" fill="#FFD700"/><path d="M300 120 L288 160 L260 160 L282 185 L274 220 L300 202 L326 220 L318 185 L340 160 L312 160 Z" fill="#C67B5C"/><rect x="185" y="290" width="30" height="60" fill="#8B4513"/><rect x="85" y="220" width="30" height="40" fill="#8B4513"/><text x="200" y="380" text-anchor="middle" fill="#5D4037" font-size="20" font-family="sans-serif">もみじ</text></svg>
