<svg xmlns="http://www.w3.org/2000/svg" width="400" height="400" viewBox="0 0 400 400"><rect fill="#FFF8F0" width="400" height="400"/><circle cx="140" cy="120" r="35" fill="#FDDCB5"/><rect x="120" y="155" width="40" height="60" fill="#7BAFD4" rx="5"/><line x1="120" y1="180" x2="95" y2="210" stroke="#5D4037" stroke-width="4" stroke-linecap="round"/><line x1="160" y1="180" x2="185" y2="210" stroke="#5D4037" stroke-width="4" stroke-linecap="round"/><line x1="135" y1="215" x2="125" y2="280" stroke="#5D4037" stroke-width="4" stroke-linecap="round"/><line x1="145" y1="215" x2="155" y2="280" stroke="#5D4037" stroke-width="4" stroke-linecap="round"/><circle cx="260" cy="120" r="35" fill="#FDDCB5"/><rect x="240" y="155" width="40" height="60" fill="#E8927C" rx="5"/><line x1="240" y1="180" x2="215" y2="210" stroke="#5D4037" stroke-width="4" stroke-linecap="round"/><line x1="280" y1="180" x2="305" y2="210" stroke="#5D4037" stroke-width="4" stroke-linecap="round"/><line x1="255" y1="215" x2="245" y2="280" stroke="#5D4037" stroke-width="4" stroke-linecap="round"/><line x1="265" y1="215" x2="275" y2="280" stroke="#5D4037" stroke-width="4" stroke-linecap="round"/><circle cx="130" cy="112" r="4" fill="#5D4037"/><circle cx="150" cy="112" r="4" fill="#5D4037"/><path d="M125 130 Q140 145 155 130" fill="none" stroke="#E8927C" stroke-width="3"/><circle cx="250" cy="112" r="4" fill="#5D4037"/><circle cx="270" cy="112" r="4" fill="#5D4037"/><path d="M245 130 Q260 145 275 130" fill="none" stroke="#E8927C" stroke-width="3"/><rect x="0" y="300" width="400" height="100" fill="#8FA98F" rx="0"/><text x="200" y="360" text-anchor="middle" fill="#5D4037" font-size="20" font-family="sans-serif">パパとママ</text></svg>
