<svg xmlns="http://www.w3.org/2000/svg" width="400" height="400" viewBox="0 0 400 400"><rect fill="#FFF8F0" width="400" height="400"/><path d="M150 180 Q170 140 200 160 Q230 180 210 200 Q190 220 160 200 Z" fill="#C67B5C"/><path d="M220 150 Q240 120 260 140 Q280 160 260 180 Q240 190 220 170 Z" fill="#E8927C"/><path d="M170 240 Q190 210 210 230 Q230 250 210 270 Q190 280 170 260 Z" fill="#FFD700"/><path d="M120 130 Q140 100 160 120 Q170 140 150 150 Q130 155 120 140 Z" fill="#8FA98F"/><path d="M250 220 Q270 195 285 215 Q295 235 275 245 Q255 250 250 235 Z" fill="#C67B5C"/><line x1="175" y1="200" x2="175" y2="280" stroke="#8B4513" stroke-width="2"/><line x1="240" y1="170" x2="240" y2="250" stroke="#8B4513" stroke-width="2"/><line x1="140" y1="145" x2="140" y2="210" stroke="#8B4513" stroke-width="2"/><text x="200" y="370" text-anchor="middle" fill="#5D4037" font-size="20" font-family="sans-serif">おちばアート</text></svg>
